<svg xmlns="http://www.w3.org/2000/svg" viewBox="0 0 512 512" fill="none">
  <rect width="512" height="512" rx="96" fill="#006FDB"/>
  <path d="M256 96c-88.4 0-160 71.6-160 160s71.6 160 160 160 160-71.6 160-160S344.4 96 256 96zm0 280c-66.3 0-120-53.7-120-120s53.7-120 120-120 120 53.7 120 120-53.7 120-120 120z" fill="white"/>
  <path d="M336 216l-80 80-40-40-24 24 64 64 104-104-24-24z" fill="white"/>
  <path d="M160 180l40 20 20-40-40-20-20 40zm80-60l40 20 20-40-40-20-20 40zm80 60l40 20 20-40-40-20-20 40z" fill="white" opacity="0.6"/>
  <text x="256" y="460" text-anchor="middle" font-family="system-ui, sans-serif" font-weight="700" font-size="80" fill="white">F2A</text>
</svg>
