<svg viewBox="0 0 800 500" xmlns="http://www.w3.org/2000/svg">
  <defs><linearGradient id="bg" x1="0%" y1="0%" x2="0%" y2="100%"><stop offset="0%" style="stop-color:#ffebee"/><stop offset="100%" style="stop-color:#ffcdd2"/></linearGradient></defs>
  <rect width="800" height="500" fill="url(#bg)"/>
  <g transform="translate(100, 150)">
    <path d="M30 180 L80 140 L180 130 L400 130 L450 150 L550 150 L550 200 L500 200 L500 225 L420 225 L400 200 L140 200 L120 225 L30 225 Z" fill="#d32f2f" opacity="0.9"/>
    <circle cx="120" cy="225" r="40" fill="#b71c1c"/><circle cx="120" cy="225" r="22" fill="#ffebee"/>
    <circle cx="420" cy="225" r="40" fill="#b71c1c"/><circle cx="420" cy="225" r="22" fill="#ffebee"/>
    <ellipse cx="250" cy="125" rx="60" ry="20" fill="#ef9a9a" opacity="0.5"/>
    <ellipse cx="350" cy="125" rx="50" ry="20" fill="#ef9a9a" opacity="0.5"/>
    <rect x="200" y="145" width="30" height="25" rx="3" fill="#757575"/>
    <rect x="340" y="145" width="30" height="25" rx="3" fill="#757575"/>
  </g>
  <text x="400" y="430" text-anchor="middle" font-family="system-ui, sans-serif" font-size="32" font-weight="600" fill="#d32f2f">Convertible</text>
</svg>