<svg viewBox="0 0 800 500" xmlns="http://www.w3.org/2000/svg">
  <defs>
    <linearGradient id="bg" x1="0%" y1="0%" x2="0%" y2="100%">
      <stop offset="0%" style="stop-color:#e8f5e9"/>
      <stop offset="100%" style="stop-color:#c8e6c9"/>
    </linearGradient>
  </defs>
  <rect width="800" height="500" fill="url(#bg)"/>
  <g transform="translate(150, 150)">
    <path d="M50 180 L80 120 L180 100 L350 100 L420 140 L480 140 L480 200 L450 200 L450 220 L380 220 L360 200 L140 200 L120 220 L50 220 L50 200 Z" fill="#2e7d32" opacity="0.9"/>
    <circle cx="120" cy="220" r="35" fill="#1b5e20"/>
    <circle cx="120" cy="220" r="20" fill="#e8f5e9"/>
    <circle cx="380" cy="220" r="35" fill="#1b5e20"/>
    <circle cx="380" cy="220" r="20" fill="#e8f5e9"/>
    <rect x="200" y="115" width="80" height="50" rx="5" fill="#a5d6a7" opacity="0.7"/>
    <rect x="300" y="115" width="60" height="50" rx="5" fill="#a5d6a7" opacity="0.7"/>
  </g>
  <text x="400" y="420" text-anchor="middle" font-family="system-ui, sans-serif" font-size="32" font-weight="600" fill="#2e7d32">Economy Car</text>
</svg>