<svg viewBox="0 0 800 500" xmlns="http://www.w3.org/2000/svg">
  <defs><linearGradient id="bg" x1="0%" y1="0%" x2="0%" y2="100%"><stop offset="0%" style="stop-color:#37474f"/><stop offset="100%" style="stop-color:#263238"/></linearGradient></defs>
  <rect width="800" height="500" fill="url(#bg)"/>
  <g transform="translate(90, 130)">
    <path d="M20 200 L60 90 L240 65 L460 65 L560 130 L620 130 L620 220 L560 220 L560 250 L470 250 L450 220 L160 220 L140 250 L20 250 Z" fill="#ffd700" opacity="0.9"/>
    <circle cx="140" cy="250" r="45" fill="#b8860b"/><circle cx="140" cy="250" r="25" fill="#37474f"/>
    <circle cx="470" cy="250" r="45" fill="#b8860b"/><circle cx="470" cy="250" r="25" fill="#37474f"/>
    <rect x="260" y="80" width="110" height="65" rx="5" fill="#fff59d" opacity="0.6"/>
    <rect x="390" y="80" width="90" height="65" rx="5" fill="#fff59d" opacity="0.6"/>
  </g>
  <text x="400" y="430" text-anchor="middle" font-family="system-ui, sans-serif" font-size="32" font-weight="600" fill="#ffd700">Luxury Vehicle</text>
</svg>