<svg viewBox="0 0 800 500" xmlns="http://www.w3.org/2000/svg">
  <defs><linearGradient id="bg" x1="0%" y1="0%" x2="0%" y2="100%"><stop offset="0%" style="stop-color:#eceff1"/><stop offset="100%" style="stop-color:#cfd8dc"/></linearGradient></defs>
  <rect width="800" height="500" fill="url(#bg)"/>
  <g transform="translate(80, 120)">
    <path d="M30 220 L60 110 L200 90 L300 90 L350 140 L350 170 L620 170 L620 250 L560 250 L560 280 L470 280 L450 250 L160 250 L140 280 L30 280 Z" fill="#455a64" opacity="0.9"/>
    <rect x="350" y="140" width="270" height="80" fill="#607d8b" rx="3"/>
    <circle cx="140" cy="280" r="48" fill="#263238"/><circle cx="140" cy="280" r="26" fill="#eceff1"/>
    <circle cx="470" cy="280" r="48" fill="#263238"/><circle cx="470" cy="280" r="26" fill="#eceff1"/>
    <rect x="80" y="105" width="100" height="70" rx="5" fill="#90a4ae" opacity="0.7"/>
    <rect x="200" y="105" width="80" height="70" rx="5" fill="#90a4ae" opacity="0.7"/>
  </g>
  <text x="400" y="450" text-anchor="middle" font-family="system-ui, sans-serif" font-size="32" font-weight="600" fill="#455a64">Pickup Truck</text>
</svg>