<svg viewBox="0 0 800 500" xmlns="http://www.w3.org/2000/svg">
  <defs><linearGradient id="bg" x1="0%" y1="0%" x2="0%" y2="100%"><stop offset="0%" style="stop-color:#fce4ec"/><stop offset="100%" style="stop-color:#f8bbd9"/></linearGradient></defs>
  <rect width="800" height="500" fill="url(#bg)"/>
  <g transform="translate(100, 100)">
    <path d="M30 220 L50 100 L150 70 L450 70 L530 120 L600 120 L600 240 L550 240 L550 270 L460 270 L440 240 L160 240 L140 270 L30 270 Z" fill="#c2185b" opacity="0.9"/>
    <circle cx="140" cy="270" r="48" fill="#880e4f"/><circle cx="140" cy="270" r="26" fill="#fce4ec"/>
    <circle cx="460" cy="270" r="48" fill="#880e4f"/><circle cx="460" cy="270" r="26" fill="#fce4ec"/>
    <rect x="170" y="85" width="120" height="75" rx="5" fill="#f48fb1" opacity="0.7"/>
    <rect x="310" y="85" width="100" height="75" rx="5" fill="#f48fb1" opacity="0.7"/>
  </g>
  <text x="400" y="440" text-anchor="middle" font-family="system-ui, sans-serif" font-size="36" font-weight="600" fill="#c2185b">SUV</text>
</svg>