<svg viewBox="0 0 800 500" xmlns="http://www.w3.org/2000/svg">
  <defs><linearGradient id="bg" x1="0%" y1="0%" x2="0%" y2="100%"><stop offset="0%" style="stop-color:#fff8e1"/><stop offset="100%" style="stop-color:#ffecb3"/></linearGradient></defs>
  <rect width="800" height="500" fill="url(#bg)"/>
  <g transform="translate(100, 90)">
    <path d="M30 250 L30 100 L200 80 L500 80 L550 130 L600 130 L600 270 L540 270 L540 300 L450 300 L430 270 L160 270 L140 300 L30 300 Z" fill="#ff8f00" opacity="0.9"/>
    <circle cx="140" cy="300" r="48" fill="#e65100"/><circle cx="140" cy="300" r="26" fill="#fff8e1"/>
    <circle cx="450" cy="300" r="48" fill="#e65100"/><circle cx="450" cy="300" r="26" fill="#fff8e1"/>
    <rect x="50" y="100" width="80" height="90" rx="5" fill="#ffcc80" opacity="0.7"/>
    <rect x="150" y="95" width="70" height="95" rx="5" fill="#ffcc80" opacity="0.7"/>
    <rect x="240" y="95" width="70" height="95" rx="5" fill="#ffcc80" opacity="0.7"/>
    <rect x="330" y="95" width="70" height="95" rx="5" fill="#ffcc80" opacity="0.7"/>
  </g>
  <text x="400" y="450" text-anchor="middle" font-family="system-ui, sans-serif" font-size="32" font-weight="600" fill="#ff8f00">Minivan</text>
</svg>